<svg viewBox="0 0 128 128" xmlns="http://www.w3.org/2000/svg">
  <defs>
    <clipPath id="fullClip">
      <rect x="0" y="0" width="128" height="128"/>
    </clipPath>
  </defs>
  <g clip-path="url(#fullClip)">
    <g transform="translate(64,69) scale(1.130) translate(-64,-64)">
      <path d="M100,40 C120,55 118,85 95,100 C75,112 45,110 30,90 C15,70 20,40 45,25 C65,12 90,20 100,40 Z" fill="#ffffff"/>
    </g>
    <g transform="translate(64,69) scale(1.000) translate(-64,-64)">
      <path d="M100,40 C120,55 118,85 95,100 C75,112 45,110 30,90 C15,70 20,40 45,25 C65,12 90,20 100,40 Z" fill="#0040ff"/>
    </g>
    <g transform="translate(64,69) scale(0.680) translate(-64,-64)">
      <path d="M100,40 C120,55 118,85 95,100 C75,112 45,110 30,90 C15,70 20,40 45,25 C65,12 90,20 100,40 Z" fill="#00e0c0"/>
    </g>
    <g transform="translate(64,69) scale(0.400) translate(-64,-64)">
      <path d="M100,40 C120,55 118,85 95,100 C75,112 45,110 30,90 C15,70 20,40 45,25 C65,12 90,20 100,40 Z" fill="#ffe000"/>
    </g>
    <g transform="translate(64,69) scale(0.180) translate(-64,-64)">
      <path d="M100,40 C120,55 118,85 95,100 C75,112 45,110 30,90 C15,70 20,40 45,25 C65,12 90,20 100,40 Z" fill="#ff2000"/>
    </g>
  </g>
</svg>